<mxfile host="app.diagrams.net" agent="Mozilla/5.0 (Macintosh; Intel Mac OS X 10_15_7) AppleWebKit/537.36 (KHTML, like Gecko) Chrome/127.0.0.0 Safari/537.36" version="24.7.7" pages="2">
  <diagram name="Página-1" id="siVPcbR2K8sn-_8hpm_6">
    <mxGraphModel dx="1912" dy="1060" grid="1" gridSize="10" guides="1" tooltips="1" connect="1" arrows="1" fold="1" page="1" pageScale="1" pageWidth="1600" pageHeight="1200" math="0" shadow="0">
      <root>
        <mxCell id="0" />
        <mxCell id="1" parent="0" />
        <mxCell id="9LJNQ6A8GoWvBQwBCGGV-2" value="Subnet" style="sketch=0;outlineConnect=0;gradientColor=none;html=1;whiteSpace=wrap;fontSize=12;fontStyle=0;shape=mxgraph.aws4.group;grIcon=mxgraph.aws4.group_subnet;strokeColor=#879196;fillColor=none;verticalAlign=top;align=left;spacingLeft=30;fontColor=#879196;dashed=0;" vertex="1" parent="1">
          <mxGeometry x="730" y="330" width="200" height="200" as="geometry" />
        </mxCell>
        <mxCell id="9LJNQ6A8GoWvBQwBCGGV-3" value="" style="aspect=fixed;sketch=0;html=1;dashed=0;whitespace=wrap;verticalLabelPosition=bottom;verticalAlign=top;fillColor=#2875E2;strokeColor=#ffffff;points=[[0.005,0.63,0],[0.1,0.2,0],[0.9,0.2,0],[0.5,0,0],[0.995,0.63,0],[0.72,0.99,0],[0.5,1,0],[0.28,0.99,0]];shape=mxgraph.kubernetes.icon2;kubernetesLabel=1;prIcon=api" vertex="1" parent="1">
          <mxGeometry x="788.34" y="380" width="83.33" height="80" as="geometry" />
        </mxCell>
        <mxCell id="9LJNQ6A8GoWvBQwBCGGV-4" value="PAYMENT-SERVICE" style="text;html=1;align=center;verticalAlign=middle;whiteSpace=wrap;rounded=0;" vertex="1" parent="1">
          <mxGeometry x="770.01" y="470" width="120" height="30" as="geometry" />
        </mxCell>
        <mxCell id="9LJNQ6A8GoWvBQwBCGGV-5" value="Subnet" style="sketch=0;outlineConnect=0;gradientColor=none;html=1;whiteSpace=wrap;fontSize=12;fontStyle=0;shape=mxgraph.aws4.group;grIcon=mxgraph.aws4.group_subnet;strokeColor=#879196;fillColor=none;verticalAlign=top;align=left;spacingLeft=30;fontColor=#879196;dashed=0;" vertex="1" parent="1">
          <mxGeometry x="730" y="610" width="200" height="200" as="geometry" />
        </mxCell>
        <mxCell id="9LJNQ6A8GoWvBQwBCGGV-6" value="" style="aspect=fixed;sketch=0;html=1;dashed=0;whitespace=wrap;verticalLabelPosition=bottom;verticalAlign=top;fillColor=#2875E2;strokeColor=#ffffff;points=[[0.005,0.63,0],[0.1,0.2,0],[0.9,0.2,0],[0.5,0,0],[0.995,0.63,0],[0.72,0.99,0],[0.5,1,0],[0.28,0.99,0]];shape=mxgraph.kubernetes.icon2;kubernetesLabel=1;prIcon=api" vertex="1" parent="1">
          <mxGeometry x="788.34" y="660" width="83.33" height="80" as="geometry" />
        </mxCell>
        <mxCell id="9LJNQ6A8GoWvBQwBCGGV-7" value="PAYMENT-SERVICE" style="text;html=1;align=center;verticalAlign=middle;whiteSpace=wrap;rounded=0;" vertex="1" parent="1">
          <mxGeometry x="770.01" y="750" width="120" height="30" as="geometry" />
        </mxCell>
        <mxCell id="9LJNQ6A8GoWvBQwBCGGV-8" value="" style="sketch=0;points=[[0,0,0],[0.25,0,0],[0.5,0,0],[0.75,0,0],[1,0,0],[0,1,0],[0.25,1,0],[0.5,1,0],[0.75,1,0],[1,1,0],[0,0.25,0],[0,0.5,0],[0,0.75,0],[1,0.25,0],[1,0.5,0],[1,0.75,0]];outlineConnect=0;fontColor=#232F3E;fillColor=#C925D1;strokeColor=#ffffff;dashed=0;verticalLabelPosition=bottom;verticalAlign=top;align=center;html=1;fontSize=12;fontStyle=0;aspect=fixed;shape=mxgraph.aws4.resourceIcon;resIcon=mxgraph.aws4.documentdb_with_mongodb_compatibility;" vertex="1" parent="1">
          <mxGeometry x="1050" y="530" width="80" height="80" as="geometry" />
        </mxCell>
        <mxCell id="9LJNQ6A8GoWvBQwBCGGV-10" style="edgeStyle=orthogonalEdgeStyle;rounded=0;orthogonalLoop=1;jettySize=auto;html=1;entryX=0.5;entryY=0;entryDx=0;entryDy=0;entryPerimeter=0;" edge="1" parent="1" source="9LJNQ6A8GoWvBQwBCGGV-2" target="9LJNQ6A8GoWvBQwBCGGV-8">
          <mxGeometry relative="1" as="geometry" />
        </mxCell>
        <mxCell id="9LJNQ6A8GoWvBQwBCGGV-11" style="edgeStyle=orthogonalEdgeStyle;rounded=0;orthogonalLoop=1;jettySize=auto;html=1;entryX=0.5;entryY=1;entryDx=0;entryDy=0;entryPerimeter=0;" edge="1" parent="1" source="9LJNQ6A8GoWvBQwBCGGV-5" target="9LJNQ6A8GoWvBQwBCGGV-8">
          <mxGeometry relative="1" as="geometry" />
        </mxCell>
        <mxCell id="9LJNQ6A8GoWvBQwBCGGV-21" style="edgeStyle=orthogonalEdgeStyle;rounded=0;orthogonalLoop=1;jettySize=auto;html=1;" edge="1" parent="1" source="9LJNQ6A8GoWvBQwBCGGV-12" target="9LJNQ6A8GoWvBQwBCGGV-5">
          <mxGeometry relative="1" as="geometry">
            <mxPoint x="720" y="720" as="targetPoint" />
            <Array as="points">
              <mxPoint x="529" y="710" />
            </Array>
          </mxGeometry>
        </mxCell>
        <mxCell id="9LJNQ6A8GoWvBQwBCGGV-22" style="edgeStyle=orthogonalEdgeStyle;rounded=0;orthogonalLoop=1;jettySize=auto;html=1;exitX=0.5;exitY=0;exitDx=0;exitDy=0;exitPerimeter=0;" edge="1" parent="1" source="9LJNQ6A8GoWvBQwBCGGV-12" target="9LJNQ6A8GoWvBQwBCGGV-2">
          <mxGeometry relative="1" as="geometry" />
        </mxCell>
        <mxCell id="9LJNQ6A8GoWvBQwBCGGV-12" value="" style="sketch=0;points=[[0,0,0],[0.25,0,0],[0.5,0,0],[0.75,0,0],[1,0,0],[0,1,0],[0.25,1,0],[0.5,1,0],[0.75,1,0],[1,1,0],[0,0.25,0],[0,0.5,0],[0,0.75,0],[1,0.25,0],[1,0.5,0],[1,0.75,0]];outlineConnect=0;fontColor=#232F3E;fillColor=#8C4FFF;strokeColor=#ffffff;dashed=0;verticalLabelPosition=bottom;verticalAlign=top;align=center;html=1;fontSize=12;fontStyle=0;aspect=fixed;shape=mxgraph.aws4.resourceIcon;resIcon=mxgraph.aws4.elastic_load_balancing;" vertex="1" parent="1">
          <mxGeometry x="490" y="530" width="78" height="78" as="geometry" />
        </mxCell>
        <mxCell id="9LJNQ6A8GoWvBQwBCGGV-31" style="edgeStyle=orthogonalEdgeStyle;rounded=0;orthogonalLoop=1;jettySize=auto;html=1;exitX=1;exitY=1;exitDx=0;exitDy=0;exitPerimeter=0;entryX=0;entryY=0.5;entryDx=0;entryDy=0;" edge="1" parent="1" source="9LJNQ6A8GoWvBQwBCGGV-23" target="9LJNQ6A8GoWvBQwBCGGV-30">
          <mxGeometry relative="1" as="geometry" />
        </mxCell>
        <mxCell id="9LJNQ6A8GoWvBQwBCGGV-23" value="Actor" style="shape=umlActor;verticalLabelPosition=bottom;verticalAlign=top;html=1;outlineConnect=0;" vertex="1" parent="1">
          <mxGeometry x="230" y="525" width="50" height="90" as="geometry" />
        </mxCell>
        <mxCell id="9LJNQ6A8GoWvBQwBCGGV-24" style="edgeStyle=orthogonalEdgeStyle;rounded=0;orthogonalLoop=1;jettySize=auto;html=1;entryX=0;entryY=0.5;entryDx=0;entryDy=0;entryPerimeter=0;" edge="1" parent="1" source="9LJNQ6A8GoWvBQwBCGGV-23" target="9LJNQ6A8GoWvBQwBCGGV-12">
          <mxGeometry relative="1" as="geometry" />
        </mxCell>
        <mxCell id="9LJNQ6A8GoWvBQwBCGGV-25" value="" style="sketch=0;points=[[0,0,0],[0.25,0,0],[0.5,0,0],[0.75,0,0],[1,0,0],[0,1,0],[0.25,1,0],[0.5,1,0],[0.75,1,0],[1,1,0],[0,0.25,0],[0,0.5,0],[0,0.75,0],[1,0.25,0],[1,0.5,0],[1,0.75,0]];outlineConnect=0;fontColor=#232F3E;fillColor=#E7157B;strokeColor=#ffffff;dashed=0;verticalLabelPosition=bottom;verticalAlign=top;align=center;html=1;fontSize=12;fontStyle=0;aspect=fixed;shape=mxgraph.aws4.resourceIcon;resIcon=mxgraph.aws4.sqs;" vertex="1" parent="1">
          <mxGeometry x="1200" y="531" width="78" height="78" as="geometry" />
        </mxCell>
        <mxCell id="9LJNQ6A8GoWvBQwBCGGV-28" value="" style="endArrow=classic;html=1;rounded=0;exitX=0.5;exitY=0;exitDx=0;exitDy=0;exitPerimeter=0;" edge="1" parent="1" source="9LJNQ6A8GoWvBQwBCGGV-25">
          <mxGeometry width="50" height="50" relative="1" as="geometry">
            <mxPoint x="1540" y="190" as="sourcePoint" />
            <mxPoint x="940" y="360" as="targetPoint" />
            <Array as="points">
              <mxPoint x="1239" y="360" />
              <mxPoint x="1080" y="360" />
            </Array>
          </mxGeometry>
        </mxCell>
        <mxCell id="9LJNQ6A8GoWvBQwBCGGV-29" value="" style="endArrow=classic;html=1;rounded=0;exitX=0.5;exitY=1;exitDx=0;exitDy=0;exitPerimeter=0;" edge="1" parent="1" source="9LJNQ6A8GoWvBQwBCGGV-25">
          <mxGeometry width="50" height="50" relative="1" as="geometry">
            <mxPoint x="1430" y="840" as="sourcePoint" />
            <mxPoint x="940" y="760" as="targetPoint" />
            <Array as="points">
              <mxPoint x="1239" y="760" />
              <mxPoint x="1080" y="760" />
            </Array>
          </mxGeometry>
        </mxCell>
        <mxCell id="9LJNQ6A8GoWvBQwBCGGV-30" value="WEBHOOK" style="rounded=0;whiteSpace=wrap;html=1;" vertex="1" parent="1">
          <mxGeometry x="568" y="880" width="120" height="60" as="geometry" />
        </mxCell>
        <mxCell id="9LJNQ6A8GoWvBQwBCGGV-32" style="edgeStyle=orthogonalEdgeStyle;rounded=0;orthogonalLoop=1;jettySize=auto;html=1;exitX=1;exitY=0.5;exitDx=0;exitDy=0;entryX=0.75;entryY=1;entryDx=0;entryDy=0;entryPerimeter=0;" edge="1" parent="1" source="9LJNQ6A8GoWvBQwBCGGV-30" target="9LJNQ6A8GoWvBQwBCGGV-25">
          <mxGeometry relative="1" as="geometry" />
        </mxCell>
      </root>
    </mxGraphModel>
  </diagram>
  <diagram id="_4vblgHxp2tt47pueW2e" name="Página-2">
    <mxGraphModel dx="2868" dy="1590" grid="1" gridSize="10" guides="1" tooltips="1" connect="1" arrows="1" fold="1" page="1" pageScale="1" pageWidth="1600" pageHeight="1200" math="0" shadow="0">
      <root>
        <mxCell id="0" />
        <mxCell id="1" parent="0" />
        <mxCell id="QALIevm_3jf51lWN-P0l-44" value="Subnet" style="sketch=0;outlineConnect=0;gradientColor=none;html=1;whiteSpace=wrap;fontSize=12;fontStyle=0;shape=mxgraph.aws4.group;grIcon=mxgraph.aws4.group_subnet;strokeColor=#879196;fillColor=none;verticalAlign=top;align=left;spacingLeft=30;fontColor=#879196;dashed=0;" vertex="1" parent="1">
          <mxGeometry x="900" y="90" width="240" height="180" as="geometry" />
        </mxCell>
        <mxCell id="QALIevm_3jf51lWN-P0l-45" style="edgeStyle=orthogonalEdgeStyle;rounded=0;orthogonalLoop=1;jettySize=auto;html=1;exitX=1;exitY=0.5;exitDx=0;exitDy=0;exitPerimeter=0;" edge="1" parent="1" source="QALIevm_3jf51lWN-P0l-46" target="QALIevm_3jf51lWN-P0l-48">
          <mxGeometry relative="1" as="geometry" />
        </mxCell>
        <mxCell id="QALIevm_3jf51lWN-P0l-46" value="" style="outlineConnect=0;dashed=0;verticalLabelPosition=bottom;verticalAlign=top;align=center;html=1;shape=mxgraph.aws3.lambda_function;fillColor=#F58534;gradientColor=none;" vertex="1" parent="1">
          <mxGeometry x="930" y="160" width="60" height="60" as="geometry" />
        </mxCell>
        <mxCell id="QALIevm_3jf51lWN-P0l-47" value="&lt;font style=&quot;font-size: 13px;&quot;&gt;credit-card-token&lt;/font&gt;" style="text;strokeColor=none;fillColor=none;html=1;fontSize=24;fontStyle=1;verticalAlign=middle;align=center;" vertex="1" parent="1">
          <mxGeometry x="900" y="60" width="120" height="30" as="geometry" />
        </mxCell>
        <mxCell id="QALIevm_3jf51lWN-P0l-48" value="" style="sketch=0;points=[[0,0,0],[0.25,0,0],[0.5,0,0],[0.75,0,0],[1,0,0],[0,1,0],[0.25,1,0],[0.5,1,0],[0.75,1,0],[1,1,0],[0,0.25,0],[0,0.5,0],[0,0.75,0],[1,0.25,0],[1,0.5,0],[1,0.75,0]];outlineConnect=0;fontColor=#232F3E;fillColor=#C925D1;strokeColor=#ffffff;dashed=0;verticalLabelPosition=bottom;verticalAlign=top;align=center;html=1;fontSize=12;fontStyle=0;aspect=fixed;shape=mxgraph.aws4.resourceIcon;resIcon=mxgraph.aws4.documentdb_with_mongodb_compatibility;" vertex="1" parent="1">
          <mxGeometry x="1060" y="160" width="60" height="60" as="geometry" />
        </mxCell>
        <mxCell id="QALIevm_3jf51lWN-P0l-49" value="Subnet" style="sketch=0;outlineConnect=0;gradientColor=none;html=1;whiteSpace=wrap;fontSize=12;fontStyle=0;shape=mxgraph.aws4.group;grIcon=mxgraph.aws4.group_subnet;strokeColor=#879196;fillColor=none;verticalAlign=top;align=left;spacingLeft=30;fontColor=#879196;dashed=0;" vertex="1" parent="1">
          <mxGeometry x="900" y="340" width="240" height="170" as="geometry" />
        </mxCell>
        <mxCell id="QALIevm_3jf51lWN-P0l-50" style="edgeStyle=orthogonalEdgeStyle;rounded=0;orthogonalLoop=1;jettySize=auto;html=1;exitX=1;exitY=0.5;exitDx=0;exitDy=0;exitPerimeter=0;" edge="1" parent="1" source="QALIevm_3jf51lWN-P0l-51" target="QALIevm_3jf51lWN-P0l-52">
          <mxGeometry relative="1" as="geometry" />
        </mxCell>
        <mxCell id="QALIevm_3jf51lWN-P0l-51" value="" style="outlineConnect=0;dashed=0;verticalLabelPosition=bottom;verticalAlign=top;align=center;html=1;shape=mxgraph.aws3.lambda_function;fillColor=#F58534;gradientColor=none;" vertex="1" parent="1">
          <mxGeometry x="935" y="395" width="60" height="60" as="geometry" />
        </mxCell>
        <mxCell id="QALIevm_3jf51lWN-P0l-52" value="" style="sketch=0;points=[[0,0,0],[0.25,0,0],[0.5,0,0],[0.75,0,0],[1,0,0],[0,1,0],[0.25,1,0],[0.5,1,0],[0.75,1,0],[1,1,0],[0,0.25,0],[0,0.5,0],[0,0.75,0],[1,0.25,0],[1,0.5,0],[1,0.75,0]];outlineConnect=0;fontColor=#232F3E;fillColor=#C925D1;strokeColor=#ffffff;dashed=0;verticalLabelPosition=bottom;verticalAlign=top;align=center;html=1;fontSize=12;fontStyle=0;aspect=fixed;shape=mxgraph.aws4.resourceIcon;resIcon=mxgraph.aws4.documentdb_with_mongodb_compatibility;" vertex="1" parent="1">
          <mxGeometry x="1060" y="395" width="60" height="60" as="geometry" />
        </mxCell>
        <mxCell id="QALIevm_3jf51lWN-P0l-53" value="&lt;font style=&quot;font-size: 13px;&quot;&gt;credit-card-payment&lt;/font&gt;" style="text;strokeColor=none;fillColor=none;html=1;fontSize=24;fontStyle=1;verticalAlign=middle;align=center;" vertex="1" parent="1">
          <mxGeometry x="920" y="310" width="100" height="20" as="geometry" />
        </mxCell>
        <mxCell id="QALIevm_3jf51lWN-P0l-54" value="Subnet" style="sketch=0;outlineConnect=0;gradientColor=none;html=1;whiteSpace=wrap;fontSize=12;fontStyle=0;shape=mxgraph.aws4.group;grIcon=mxgraph.aws4.group_subnet;strokeColor=#879196;fillColor=none;verticalAlign=top;align=left;spacingLeft=30;fontColor=#879196;dashed=0;" vertex="1" parent="1">
          <mxGeometry x="900" y="590" width="240" height="160" as="geometry" />
        </mxCell>
        <mxCell id="QALIevm_3jf51lWN-P0l-55" style="edgeStyle=orthogonalEdgeStyle;rounded=0;orthogonalLoop=1;jettySize=auto;html=1;exitX=1;exitY=0.5;exitDx=0;exitDy=0;exitPerimeter=0;" edge="1" parent="1" source="QALIevm_3jf51lWN-P0l-56" target="QALIevm_3jf51lWN-P0l-57">
          <mxGeometry relative="1" as="geometry" />
        </mxCell>
        <mxCell id="QALIevm_3jf51lWN-P0l-56" value="" style="outlineConnect=0;dashed=0;verticalLabelPosition=bottom;verticalAlign=top;align=center;html=1;shape=mxgraph.aws3.lambda_function;fillColor=#F58534;gradientColor=none;" vertex="1" parent="1">
          <mxGeometry x="930" y="640" width="60" height="60" as="geometry" />
        </mxCell>
        <mxCell id="QALIevm_3jf51lWN-P0l-57" value="" style="sketch=0;points=[[0,0,0],[0.25,0,0],[0.5,0,0],[0.75,0,0],[1,0,0],[0,1,0],[0.25,1,0],[0.5,1,0],[0.75,1,0],[1,1,0],[0,0.25,0],[0,0.5,0],[0,0.75,0],[1,0.25,0],[1,0.5,0],[1,0.75,0]];outlineConnect=0;fontColor=#232F3E;fillColor=#C925D1;strokeColor=#ffffff;dashed=0;verticalLabelPosition=bottom;verticalAlign=top;align=center;html=1;fontSize=12;fontStyle=0;aspect=fixed;shape=mxgraph.aws4.resourceIcon;resIcon=mxgraph.aws4.documentdb_with_mongodb_compatibility;" vertex="1" parent="1">
          <mxGeometry x="1060" y="640" width="60" height="60" as="geometry" />
        </mxCell>
        <mxCell id="QALIevm_3jf51lWN-P0l-58" value="&lt;font style=&quot;font-size: 13px;&quot;&gt;credit-card-cancel&lt;/font&gt;" style="text;strokeColor=none;fillColor=none;html=1;fontSize=24;fontStyle=1;verticalAlign=middle;align=center;" vertex="1" parent="1">
          <mxGeometry x="910" y="560" width="110" height="20" as="geometry" />
        </mxCell>
        <mxCell id="QALIevm_3jf51lWN-P0l-59" value="" style="sketch=0;points=[[0,0,0],[0.25,0,0],[0.5,0,0],[0.75,0,0],[1,0,0],[0,1,0],[0.25,1,0],[0.5,1,0],[0.75,1,0],[1,1,0],[0,0.25,0],[0,0.5,0],[0,0.75,0],[1,0.25,0],[1,0.5,0],[1,0.75,0]];outlineConnect=0;fontColor=#232F3E;fillColor=#E7157B;strokeColor=#ffffff;dashed=0;verticalLabelPosition=bottom;verticalAlign=top;align=center;html=1;fontSize=12;fontStyle=0;aspect=fixed;shape=mxgraph.aws4.resourceIcon;resIcon=mxgraph.aws4.sqs;" vertex="1" parent="1">
          <mxGeometry x="1340" y="510" width="120" height="120" as="geometry" />
        </mxCell>
        <mxCell id="QALIevm_3jf51lWN-P0l-60" value="Subnet" style="sketch=0;outlineConnect=0;gradientColor=none;html=1;whiteSpace=wrap;fontSize=12;fontStyle=0;shape=mxgraph.aws4.group;grIcon=mxgraph.aws4.group_subnet;strokeColor=#879196;fillColor=none;verticalAlign=top;align=left;spacingLeft=30;fontColor=#879196;dashed=0;" vertex="1" parent="1">
          <mxGeometry x="900" y="820" width="240" height="170" as="geometry" />
        </mxCell>
        <mxCell id="QALIevm_3jf51lWN-P0l-61" style="edgeStyle=orthogonalEdgeStyle;rounded=0;orthogonalLoop=1;jettySize=auto;html=1;exitX=1;exitY=0.5;exitDx=0;exitDy=0;exitPerimeter=0;" edge="1" parent="1" source="QALIevm_3jf51lWN-P0l-62" target="QALIevm_3jf51lWN-P0l-63">
          <mxGeometry relative="1" as="geometry" />
        </mxCell>
        <mxCell id="QALIevm_3jf51lWN-P0l-62" value="" style="outlineConnect=0;dashed=0;verticalLabelPosition=bottom;verticalAlign=top;align=center;html=1;shape=mxgraph.aws3.lambda_function;fillColor=#F58534;gradientColor=none;" vertex="1" parent="1">
          <mxGeometry x="930" y="870" width="60" height="60" as="geometry" />
        </mxCell>
        <mxCell id="QALIevm_3jf51lWN-P0l-63" value="" style="sketch=0;points=[[0,0,0],[0.25,0,0],[0.5,0,0],[0.75,0,0],[1,0,0],[0,1,0],[0.25,1,0],[0.5,1,0],[0.75,1,0],[1,1,0],[0,0.25,0],[0,0.5,0],[0,0.75,0],[1,0.25,0],[1,0.5,0],[1,0.75,0]];outlineConnect=0;fontColor=#232F3E;fillColor=#C925D1;strokeColor=#ffffff;dashed=0;verticalLabelPosition=bottom;verticalAlign=top;align=center;html=1;fontSize=12;fontStyle=0;aspect=fixed;shape=mxgraph.aws4.resourceIcon;resIcon=mxgraph.aws4.documentdb_with_mongodb_compatibility;" vertex="1" parent="1">
          <mxGeometry x="1060" y="870" width="60" height="60" as="geometry" />
        </mxCell>
        <mxCell id="QALIevm_3jf51lWN-P0l-64" value="&lt;font style=&quot;font-size: 13px;&quot;&gt;credit-card-report&lt;/font&gt;" style="text;strokeColor=none;fillColor=none;html=1;fontSize=24;fontStyle=1;verticalAlign=middle;align=center;" vertex="1" parent="1">
          <mxGeometry x="910" y="790" width="110" height="20" as="geometry" />
        </mxCell>
        <mxCell id="QALIevm_3jf51lWN-P0l-65" value="" style="endArrow=classic;startArrow=classic;html=1;rounded=0;exitX=1;exitY=0.5;exitDx=0;exitDy=0;exitPerimeter=0;entryX=0.5;entryY=0;entryDx=0;entryDy=0;entryPerimeter=0;" edge="1" parent="1" source="QALIevm_3jf51lWN-P0l-48" target="QALIevm_3jf51lWN-P0l-59">
          <mxGeometry width="50" height="50" relative="1" as="geometry">
            <mxPoint x="820" y="410" as="sourcePoint" />
            <mxPoint x="870" y="360" as="targetPoint" />
            <Array as="points">
              <mxPoint x="1400" y="190" />
            </Array>
          </mxGeometry>
        </mxCell>
        <mxCell id="QALIevm_3jf51lWN-P0l-66" value="" style="endArrow=classic;startArrow=classic;html=1;rounded=0;exitX=1;exitY=0.5;exitDx=0;exitDy=0;exitPerimeter=0;entryX=0.5;entryY=1;entryDx=0;entryDy=0;entryPerimeter=0;" edge="1" parent="1" source="QALIevm_3jf51lWN-P0l-63" target="QALIevm_3jf51lWN-P0l-59">
          <mxGeometry width="50" height="50" relative="1" as="geometry">
            <mxPoint x="820" y="630" as="sourcePoint" />
            <mxPoint x="870" y="580" as="targetPoint" />
            <Array as="points">
              <mxPoint x="1400" y="900" />
            </Array>
          </mxGeometry>
        </mxCell>
        <mxCell id="QALIevm_3jf51lWN-P0l-67" value="" style="endArrow=classic;startArrow=classic;html=1;rounded=0;exitX=1;exitY=0.5;exitDx=0;exitDy=0;exitPerimeter=0;entryX=0.25;entryY=0;entryDx=0;entryDy=0;entryPerimeter=0;" edge="1" parent="1" source="QALIevm_3jf51lWN-P0l-52" target="QALIevm_3jf51lWN-P0l-59">
          <mxGeometry width="50" height="50" relative="1" as="geometry">
            <mxPoint x="820" y="630" as="sourcePoint" />
            <mxPoint x="870" y="580" as="targetPoint" />
            <Array as="points">
              <mxPoint x="1370" y="425" />
            </Array>
          </mxGeometry>
        </mxCell>
        <mxCell id="QALIevm_3jf51lWN-P0l-68" value="" style="endArrow=classic;startArrow=classic;html=1;rounded=0;exitX=1;exitY=0.5;exitDx=0;exitDy=0;exitPerimeter=0;entryX=0.25;entryY=1;entryDx=0;entryDy=0;entryPerimeter=0;" edge="1" parent="1" source="QALIevm_3jf51lWN-P0l-57" target="QALIevm_3jf51lWN-P0l-59">
          <mxGeometry width="50" height="50" relative="1" as="geometry">
            <mxPoint x="820" y="630" as="sourcePoint" />
            <mxPoint x="870" y="580" as="targetPoint" />
            <Array as="points">
              <mxPoint x="1370" y="670" />
            </Array>
          </mxGeometry>
        </mxCell>
        <mxCell id="QALIevm_3jf51lWN-P0l-69" value="" style="verticalLabelPosition=bottom;aspect=fixed;html=1;shape=mxgraph.salesforce.web;" vertex="1" parent="1">
          <mxGeometry x="480" y="350" width="151.9" height="120" as="geometry" />
        </mxCell>
        <mxCell id="QALIevm_3jf51lWN-P0l-70" value="Subnet" style="sketch=0;outlineConnect=0;gradientColor=none;html=1;whiteSpace=wrap;fontSize=12;fontStyle=0;shape=mxgraph.aws4.group;grIcon=mxgraph.aws4.group_subnet;strokeColor=#879196;fillColor=none;verticalAlign=top;align=left;spacingLeft=30;fontColor=#879196;dashed=0;" vertex="1" parent="1">
          <mxGeometry x="450" y="310" width="210" height="180" as="geometry" />
        </mxCell>
        <mxCell id="QALIevm_3jf51lWN-P0l-71" value="&lt;span style=&quot;font-size: 13px;&quot;&gt;SITE&lt;/span&gt;" style="text;strokeColor=none;fillColor=none;html=1;fontSize=24;fontStyle=1;verticalAlign=middle;align=center;" vertex="1" parent="1">
          <mxGeometry x="450" y="280" width="100" height="20" as="geometry" />
        </mxCell>
        <mxCell id="QALIevm_3jf51lWN-P0l-72" style="edgeStyle=orthogonalEdgeStyle;rounded=0;orthogonalLoop=1;jettySize=auto;html=1;exitX=1;exitY=1;exitDx=0;exitDy=0;exitPerimeter=0;entryX=0;entryY=0.5;entryDx=0;entryDy=0;" edge="1" parent="1" source="QALIevm_3jf51lWN-P0l-74" target="QALIevm_3jf51lWN-P0l-75">
          <mxGeometry relative="1" as="geometry" />
        </mxCell>
        <mxCell id="QALIevm_3jf51lWN-P0l-73" style="edgeStyle=orthogonalEdgeStyle;rounded=0;orthogonalLoop=1;jettySize=auto;html=1;" edge="1" parent="1" source="QALIevm_3jf51lWN-P0l-74" target="QALIevm_3jf51lWN-P0l-82">
          <mxGeometry relative="1" as="geometry" />
        </mxCell>
        <mxCell id="QALIevm_3jf51lWN-P0l-74" value="Actor" style="shape=umlActor;verticalLabelPosition=bottom;verticalAlign=top;html=1;outlineConnect=0;" vertex="1" parent="1">
          <mxGeometry x="140" y="510" width="50" height="80" as="geometry" />
        </mxCell>
        <mxCell id="QALIevm_3jf51lWN-P0l-75" value="WEBHOOK" style="rounded=0;whiteSpace=wrap;html=1;" vertex="1" parent="1">
          <mxGeometry x="700" y="1030" width="160" height="80" as="geometry" />
        </mxCell>
        <mxCell id="QALIevm_3jf51lWN-P0l-76" style="edgeStyle=orthogonalEdgeStyle;rounded=0;orthogonalLoop=1;jettySize=auto;html=1;exitX=1;exitY=0.5;exitDx=0;exitDy=0;entryX=0.75;entryY=1;entryDx=0;entryDy=0;entryPerimeter=0;" edge="1" parent="1" source="QALIevm_3jf51lWN-P0l-75" target="QALIevm_3jf51lWN-P0l-59">
          <mxGeometry relative="1" as="geometry" />
        </mxCell>
        <mxCell id="QALIevm_3jf51lWN-P0l-77" value="" style="verticalLabelPosition=bottom;aspect=fixed;html=1;shape=mxgraph.salesforce.web;" vertex="1" parent="1">
          <mxGeometry x="480.95" y="610" width="151.9" height="120" as="geometry" />
        </mxCell>
        <mxCell id="QALIevm_3jf51lWN-P0l-78" value="Subnet" style="sketch=0;outlineConnect=0;gradientColor=none;html=1;whiteSpace=wrap;fontSize=12;fontStyle=0;shape=mxgraph.aws4.group;grIcon=mxgraph.aws4.group_subnet;strokeColor=#879196;fillColor=none;verticalAlign=top;align=left;spacingLeft=30;fontColor=#879196;dashed=0;" vertex="1" parent="1">
          <mxGeometry x="450.95" y="570" width="210" height="180" as="geometry" />
        </mxCell>
        <mxCell id="QALIevm_3jf51lWN-P0l-79" value="&lt;span style=&quot;font-size: 13px;&quot;&gt;SITE&lt;/span&gt;" style="text;strokeColor=none;fillColor=none;html=1;fontSize=24;fontStyle=1;verticalAlign=middle;align=center;" vertex="1" parent="1">
          <mxGeometry x="450.95" y="540" width="100" height="20" as="geometry" />
        </mxCell>
        <mxCell id="QALIevm_3jf51lWN-P0l-80" style="edgeStyle=orthogonalEdgeStyle;rounded=0;orthogonalLoop=1;jettySize=auto;html=1;exitX=0.5;exitY=0;exitDx=0;exitDy=0;exitPerimeter=0;" edge="1" parent="1" source="QALIevm_3jf51lWN-P0l-82" target="QALIevm_3jf51lWN-P0l-70">
          <mxGeometry relative="1" as="geometry">
            <Array as="points">
              <mxPoint x="315" y="390" />
            </Array>
          </mxGeometry>
        </mxCell>
        <mxCell id="QALIevm_3jf51lWN-P0l-81" style="edgeStyle=orthogonalEdgeStyle;rounded=0;orthogonalLoop=1;jettySize=auto;html=1;exitX=0.5;exitY=1;exitDx=0;exitDy=0;exitPerimeter=0;" edge="1" parent="1" source="QALIevm_3jf51lWN-P0l-82" target="QALIevm_3jf51lWN-P0l-78">
          <mxGeometry relative="1" as="geometry">
            <Array as="points">
              <mxPoint x="315" y="660" />
            </Array>
          </mxGeometry>
        </mxCell>
        <mxCell id="QALIevm_3jf51lWN-P0l-82" value="" style="sketch=0;points=[[0,0,0],[0.25,0,0],[0.5,0,0],[0.75,0,0],[1,0,0],[0,1,0],[0.25,1,0],[0.5,1,0],[0.75,1,0],[1,1,0],[0,0.25,0],[0,0.5,0],[0,0.75,0],[1,0.25,0],[1,0.5,0],[1,0.75,0]];outlineConnect=0;fontColor=#232F3E;fillColor=#8C4FFF;strokeColor=#ffffff;dashed=0;verticalLabelPosition=bottom;verticalAlign=top;align=center;html=1;fontSize=12;fontStyle=0;aspect=fixed;shape=mxgraph.aws4.resourceIcon;resIcon=mxgraph.aws4.elastic_load_balancing;" vertex="1" parent="1">
          <mxGeometry x="280" y="515" width="70" height="70" as="geometry" />
        </mxCell>
        <mxCell id="QALIevm_3jf51lWN-P0l-83" value="" style="endArrow=none;html=1;rounded=0;" edge="1" parent="1">
          <mxGeometry width="50" height="50" relative="1" as="geometry">
            <mxPoint x="660" y="390" as="sourcePoint" />
            <mxPoint x="660" y="670" as="targetPoint" />
            <Array as="points">
              <mxPoint x="740" y="390" />
              <mxPoint x="740" y="670" />
            </Array>
          </mxGeometry>
        </mxCell>
        <mxCell id="QALIevm_3jf51lWN-P0l-84" value="" style="endArrow=none;html=1;rounded=0;" edge="1" parent="1" target="QALIevm_3jf51lWN-P0l-44">
          <mxGeometry width="50" height="50" relative="1" as="geometry">
            <mxPoint x="740" y="390" as="sourcePoint" />
            <mxPoint x="1000" y="450" as="targetPoint" />
            <Array as="points">
              <mxPoint x="740" y="180" />
            </Array>
          </mxGeometry>
        </mxCell>
        <mxCell id="QALIevm_3jf51lWN-P0l-85" value="" style="endArrow=none;html=1;rounded=0;" edge="1" parent="1" target="QALIevm_3jf51lWN-P0l-60">
          <mxGeometry width="50" height="50" relative="1" as="geometry">
            <mxPoint x="740" y="670" as="sourcePoint" />
            <mxPoint x="890" y="960" as="targetPoint" />
            <Array as="points">
              <mxPoint x="740" y="910" />
            </Array>
          </mxGeometry>
        </mxCell>
        <mxCell id="QALIevm_3jf51lWN-P0l-86" value="" style="endArrow=none;html=1;rounded=0;" edge="1" parent="1" target="QALIevm_3jf51lWN-P0l-49">
          <mxGeometry width="50" height="50" relative="1" as="geometry">
            <mxPoint x="740" y="430" as="sourcePoint" />
            <mxPoint x="1000" y="450" as="targetPoint" />
          </mxGeometry>
        </mxCell>
        <mxCell id="QALIevm_3jf51lWN-P0l-87" value="" style="endArrow=none;html=1;rounded=0;" edge="1" parent="1" target="QALIevm_3jf51lWN-P0l-54">
          <mxGeometry width="50" height="50" relative="1" as="geometry">
            <mxPoint x="740" y="670" as="sourcePoint" />
            <mxPoint x="1000" y="450" as="targetPoint" />
          </mxGeometry>
        </mxCell>
      </root>
    </mxGraphModel>
  </diagram>
</mxfile>
